<svg xmlns="http://www.w3.org/2000/svg" viewBox="0 0 3755.17 2134.53"><defs><style>.cls-1{fill:#fff;}</style></defs><title>Firma Blanca</title><g id="Capa_4" data-name="Capa 4"><path class="cls-1" d="M863.18,350c-13.52,3-26.9,6.55-40.23,10.29s-26.56,7.77-39.73,12Q743.71,385,705.15,400.47T629.22,433.9Q591.89,452,556,472.86t-69.59,44.95c-2.81,2-5.62,4-8.41,6.07L473.84,527l-1,.77-1.09.75L469.58,530q-8.49,6-16.88,12-16.79,12.16-33.16,24.86c-10.86,8.5-21.61,17.18-31.72,26.44-2.54,2.32-5,4.67-7.43,7.12L376.7,604c-1.19,1.22-2.41,2.41-3.56,3.67A168.49,168.49,0,0,0,360,623.32c-8.07,10.9-14.76,22.9-18.72,35.69a73.54,73.54,0,0,0-3.39,19.56,52.43,52.43,0,0,0,3,19.19h0l.13.47.12.42.18.56c.13.38.28.77.43,1.16q.48,1.17,1.08,2.34a42,42,0,0,0,2.71,4.53,57.21,57.21,0,0,0,7,8.25A89.78,89.78,0,0,0,370,728.79c12.74,7.57,26.89,12.87,41.34,16.91a317.21,317.21,0,0,0,44.32,8.75q11.24,1.47,22.55,2.38t22.67,1.34q22.71.86,45.48.27l11.46-.29c3.85-.07,7.72-.07,11.58,0q11.6.2,23.18,1.36a204,204,0,0,1,23.06,3.67,133.53,133.53,0,0,1,22.55,7,90.1,90.1,0,0,1,10.75,5.31c.87.52,1.74,1,2.6,1.55l2.53,1.69q2.49,1.71,4.84,3.61a66.05,66.05,0,0,1,16,18.39,59.2,59.2,0,0,1,7.51,23.39,78.71,78.71,0,0,1-1.36,24.16,122.26,122.26,0,0,1-7.1,22.66,182.67,182.67,0,0,1-10.48,21,279,279,0,0,1-26.78,38q-3.71,4.47-7.58,8.8c-2.6,2.9-5.19,5.73-8,8.55l-16.28,16.08c-21.7,21.43-43.41,42.86-65.41,64.05s-44.32,42.1-67.38,62.24-46.88,39.43-70.52,58.57-46.7,39-69.52,59.1-45.21,40.68-67.1,61.78c-11,10.55-21.76,21.19-32.39,32S211.25,1323,200.66,1334l-15.89,16.44-7.93,8.23c-2.62,2.73-5.31,5.51-7.79,8.18-10.33,11.2-20.49,22.4-30.13,34a449,449,0,0,0-27.14,36c-4.21,6.22-8.2,12.58-12.07,19s-7.68,13-11.19,19.61a293.69,293.69,0,0,0-18.12,40.93c-5.18,14.25-9.82,28.43-13,43a203.43,203.43,0,0,0-5.07,43.94,171.85,171.85,0,0,0,5.48,43.57l.16.63,0,.94,0,.56,0,.7q.06.72.15,1.47c.11,1,.25,2,.41,3,.33,2,.75,4.06,1.24,6.08a94.06,94.06,0,0,0,3.8,11.94,97.77,97.77,0,0,0,12.2,22c10,13.61,23.33,24.67,38.35,32.91s31.6,14,48.61,17.79a258,258,0,0,0,25.88,4.43c8.72,1,17.49,1.82,26.31,2.16a449.4,449.4,0,0,0,53-.91c17.69-1.26,35.36-3.36,52.95-6.06s35.1-6,52.54-9.76,34.76-8,52-12.58q208.19-55.92,417.37-107.8t419.49-99.37q105.22-23.4,210.9-44.79c70.48-14.12,141.15-27.42,212.19-38.81,35.52-5.69,71.13-10.88,106.92-15.08,4.46-.53,9-1,13.31-1.62l13.3-1.78,26.71-3.57q26.71-3.52,53.46-6.88c35.66-4.5,71.36-8.65,107.06-12.7l53.59-5.8,26.82-2.75c8.93-.92,17.87-1.85,26.81-2.68q107.31-10.49,214.88-17.87c71.71-4.84,143.54-8,215.32-10.7s143.61-4.81,215.44-6.29q53.86-1.11,107.74-1.81c35.87-.53,71.78-1.64,107.69-2.35s71.84-1.17,107.77-1.21,71.85.48,107.76,1.34l26.93.82,13.47.43,13.46.56,26.91,1.14,26.91,1.42c17.93.86,35.85,2.15,53.77,3.29,9,.53,17.91,1.31,26.86,2l26.86,2.09q-107.48-7.55-215.22-9.27-53.84-.78-107.69-.3T2974.67,1344c-35.88,1-71.76,2.4-107.7,3.22s-71.8,1.67-107.68,2.72q-107.67,3.19-215.28,7.86c-71.75,3.12-143.42,6.79-215,12.1s-143.08,11.58-214.48,18.93c-8.93.88-17.85,1.85-26.77,2.81l-26.76,2.88-53.49,6c-35.64,4.22-71.27,8.53-106.85,13.19q-26.69,3.48-53.35,7.13l-26.67,3.68-13.4,1.84c-4.57.63-9,1.13-13.41,1.67-35.54,4.27-71,9.55-106.38,15.32-70.77,11.55-141.27,25-211.59,39.33s-140.47,29.57-210.51,45.32c-140.09,31.47-279.7,65.12-419.06,99.78q-104.5,26-208.79,53t-208.33,54.74c-17.48,4.6-35,8.93-52.7,12.72s-35.47,7.14-53.38,9.86-35.93,4.85-54.06,6.12a462.7,462.7,0,0,1-54.62.85c-9.13-.37-18.26-1.17-27.37-2.29a268.55,268.55,0,0,1-27.18-4.7c-18-4-35.75-10.11-52.17-19.22s-31.4-21.37-42.66-36.8a110.77,110.77,0,0,1-13.81-25,105.93,105.93,0,0,1-4.32-13.71c-.56-2.34-1-4.71-1.42-7.12-.2-1.2-.36-2.42-.5-3.65-.07-.62-.12-1.24-.17-1.88l-.07-1c0-.35,0-.62-.05-1.13l.21,1.58a185.24,185.24,0,0,1-5.78-47,216.7,216.7,0,0,1,5.52-46.75,354.86,354.86,0,0,1,13.6-44.5,307.43,307.43,0,0,1,19-42.58c3.68-6.85,7.6-13.52,11.54-20.08s8.14-13.18,12.5-19.58c8.7-12.81,18.11-25.1,28-36.94s20.27-23.18,30.64-34.37c2.72-2.91,5.34-5.59,8-8.36l8-8.22,15.94-16.4c10.63-10.93,21.26-21.88,32-32.75s21.68-21.64,32.72-32.2q33.13-31.73,67.68-61.92c23-20.12,46.34-39.85,70.15-59.08s47.58-38,70.49-58,45.26-40.57,67.3-61.58,43.81-42.33,65.61-63.65l16.33-16c2.59-2.54,5.16-5.32,7.67-8.08s5-5.62,7.38-8.5a269.79,269.79,0,0,0,26-36.55,176.65,176.65,0,0,0,10-19.84,113.67,113.67,0,0,0,6.7-20.87,69.6,69.6,0,0,0,1.37-21.33,50.23,50.23,0,0,0-6.23-19.88,57.27,57.27,0,0,0-13.77-16c-1.39-1.13-2.83-2.23-4.3-3.25l-2.22-1.5c-.76-.48-1.54-.93-2.3-1.39a81.52,81.52,0,0,0-9.71-4.87,125.06,125.06,0,0,0-21-6.67,193.64,193.64,0,0,0-22.06-3.65c-7.45-.82-14.95-1.29-22.46-1.47-3.76-.09-7.52-.12-11.29-.07l-11.41.22q-23,.43-46-.57-11.49-.56-23-1.52t-22.91-2.56a327,327,0,0,1-45.29-9.25c-14.85-4.28-29.51-9.82-42.95-17.95a96.42,96.42,0,0,1-18.71-14.46A64.38,64.38,0,0,1,340,711a48.59,48.59,0,0,1-3.11-5.29c-.46-.93-.89-1.88-1.28-2.87-.2-.5-.38-1-.55-1.52-.09-.26-.17-.53-.25-.81l-.12-.43-.13-.53.13.47a59,59,0,0,1-3.2-21.62,80,80,0,0,1,3.84-21.21,97.16,97.16,0,0,1,3.76-10c1.4-3.27,3-6.45,4.68-9.56a143,143,0,0,1,11.52-17.78,173.39,173.39,0,0,1,13.7-16c1.2-1.29,2.47-2.5,3.7-3.75l3.76-3.62c2.46-2.43,5-4.86,7.62-7.19,10.39-9.35,21.28-18,32.28-26.46s22.21-16.64,33.5-24.68q8.47-6,17-11.94l2.15-1.47,1.05-.72,1.05-.75,4.2-3c2.79-2,5.64-4,8.48-6,22.75-15.91,46.27-30.69,70.35-44.47s48.72-26.53,73.8-38.34,50.58-22.73,76.42-32.71,52-19.1,78.5-27.29q19.83-6.15,39.9-11.56C836.19,356.2,849.62,352.82,863.18,350Z" transform="translate(-39.12 -16.22)"/><path class="cls-1" d="M1971.67,508c14.79-12.89,29.18-26.23,43.33-39.8s28-27.45,41.49-41.69,26.65-28.77,39.19-43.84a566.09,566.09,0,0,0,35.43-46.83c2.65-4.11,5.41-8.15,7.88-12.37,1.26-2.1,2.58-4.16,3.77-6.29l3.57-6.4c1.24-2.11,2.26-4.33,3.37-6.5s2.25-4.33,3.19-6.58l3-6.68,2.57-6.82.64-1.7c.16-.5.31-1.13.44-1.7q.42-1.75.75-3.54c.45-2.37.77-4.78,1.05-7.18a93.8,93.8,0,0,0,.42-14.51,87.47,87.47,0,0,0-1.91-14.34,79.4,79.4,0,0,0-4.53-13.7,67.25,67.25,0,0,0-17.14-22.89,86.44,86.44,0,0,0-24.8-14.59c-2.27-.82-4.51-1.73-6.82-2.46l-7-2c-2.34-.62-4.73-1.07-7.09-1.61-1.19-.24-2.37-.55-3.57-.74l-3.6-.56c-9.57-1.68-19.32-2.18-29.05-2.59h.19c-4.27.31-8.37.27-12.49.4s-8.21.26-12.3.54c-8.18.53-16.34,1.45-24.45,2.71A349,349,0,0,0,1959.27,195c-15.71,4.85-31.14,10.58-46.31,17s-30,13.47-44.71,20.91A972.82,972.82,0,0,0,1783,282.72c-27.59,18-54.45,37.19-80.7,57.14L1682.75,355l-2.44,1.89-1.22,1-1.13,1-4.69,4-9.34,8.11q-18.65,16.28-37,32.87c-24.48,22.12-48.67,44.57-72.33,67.55s-46.89,46.4-69.1,70.7c-11.12,12.14-21.93,24.55-32.23,37.32s-20.13,25.93-28.54,39.81l-.11.18-.16.21c-3.78,5-7.43,10.37-10.83,15.78S1407,646.3,1404,652a167.37,167.37,0,0,0-14,35.38,95.35,95.35,0,0,0-3,18.48,62.4,62.4,0,0,0,1.57,18.19,47.2,47.2,0,0,0,7.5,16.2A52.68,52.68,0,0,0,1402,747a64.07,64.07,0,0,0,7.09,5.7l.29.2.32.31c.16.15.49.47.78.71s.6.52.91.77c.62.52,1.28,1,1.94,1.53,1.34,1,2.71,1.95,4.14,2.85a85,85,0,0,0,8.87,5,110.88,110.88,0,0,0,19.19,7.19,148.86,148.86,0,0,0,41,5l5.2-.09,5.21-.29,2.6-.15,2.59-.25,5.2-.51c1.73-.19,3.45-.46,5.18-.69s3.45-.42,5.17-.76l5.15-.91,2.57-.46,2.56-.55a299.92,299.92,0,0,0,40.34-11.53c6.57-2.35,13.2-4.95,19.82-7.51L1608,744.8q19.83-7.75,39.54-15.78c13.13-5.36,26.23-10.78,39.24-16.38,6.5-2.81,13-5.63,19.42-8.55,3.22-1.45,6.42-2.94,9.6-4.44l4.74-2.27,2.34-1.16,2.22-1.15.27-.14.15-.06q26.13-11.28,52.14-23t51.8-23.74c17.21-8,34.34-16.23,51.3-24.71s33.83-17.14,50.13-26.56l40.74-23.55L1937,605.2q-98,90.38-195.47,181.39-24.32,22.8-48.54,45.68t-48.07,46.06L1633.14,890c-1.92,2-3.76,3.92-5.64,5.88l-2.8,2.94c-.94,1-1.86,2.06-2.79,3.09l-22.35,24.79-44.68,49.47c-29.71,33-59.33,66.16-88.47,99.66q-21.9,25.08-43.25,50.58l-10.61,12.79-10.42,12.9-20.8,26.06Q1298,1282.32,1213.72,1385.7q-42.1,51.72-84.47,103.24c-28.29,34.32-56.64,68.58-85.47,102.51s-57,68.11-85.88,102-58.36,67.34-88.79,99.9-61.75,64.32-93.81,95.28l-24.16,23.08-24.48,22.75-6.12,5.69-6.21,5.6L701.91,1957,689.5,1968.2c-2,1.9-4.19,3.68-6.3,5.5l-6.34,5.45c-16.83,14.49-33.66,29.14-51.09,43.2s-35.43,27.51-54.06,40-37.8,24.15-57.29,35.15l-14.7,8.11c-4.91,2.67-9.88,5.21-14.83,7.83l-7.42,3.9-7.49,3.75-15,7.51.59-.33c-.94.56-1.65,1-2.45,1.4s-1.55.84-2.33,1.24c-1.55.8-3.1,1.56-4.66,2.3q-4.68,2.19-9.46,4.09a188.67,188.67,0,0,1-19.44,6.51,198.33,198.33,0,0,1-20,4.41,195.91,195.91,0,0,1-20.38,2.22,187.47,187.47,0,0,1-40.91-2.25,196.74,196.74,0,0,1-39.4-11.12l-.29-.12-.18-.09-1.23-.64-1.11-.61c-.72-.41-1.43-.81-2.12-1.23q-2.08-1.24-4.09-2.57c-2.68-1.75-5.26-3.61-7.79-5.54a140.16,140.16,0,0,1-14.29-12.59,134.61,134.61,0,0,1-22.79-30.5,127.66,127.66,0,0,1-13.06-35.84,136.9,136.9,0,0,1-2.53-18.89l-.24-4.74c-.07-1.59,0-3.17-.06-4.75-.08-3.17.15-6.32.26-9.47a187.36,187.36,0,0,1,6.21-37,249.29,249.29,0,0,1,12.43-35.09,346.78,346.78,0,0,1,16.68-33c6.17-10.64,12.77-21,19.7-31.08a648.61,648.61,0,0,1,45.33-57.5c16.11-18.28,33-35.77,50.47-52.7L391,1750.5l13.36-12.38L418,1725.93c2.2-2,4.7-4.11,7-6s4.68-3.91,7-5.8c9.41-7.67,19-15.16,28.49-22.63s19.17-14.82,28.92-22c38.77-29,78.38-56.9,118.52-84l30.31-20c5.06-3.31,10.08-6.69,15.18-10l15.32-9.73c10.22-6.48,20.4-13,30.65-19.44l31-18.93q124-75.46,254.23-140.07l-.47.26c14.07-8.38,28.11-16.52,42.24-24.6s28.28-16.09,42.48-24q42.6-23.8,85.51-47,85.82-46.38,172.64-90.82c14.46-7.42,28.91-14.86,43.43-22.16l43.53-22,87.28-43.46,174.76-86.4q174.85-86.19,350-171.88T2376.5,664.66q175.44-85,351.25-169.25T3080,328.29q176.46-82.85,354-163.34,88.88-40,178.44-78.55c29.9-12.71,59.88-25.26,90.06-37.3l22.69-8.89c7.61-2.86,15.18-5.81,22.82-8.58s15.25-5.59,23-8.09l5.78-1.94c1.92-.65,3.85-1.3,5.8-1.86l11.67-3.52-11.64,3.62c-1.95.57-3.86,1.24-5.78,1.91l-5.76,2c-7.7,2.57-15.28,5.49-22.91,8.29s-15.15,5.85-22.73,8.76l-22.61,9.07c-30.08,12.26-60,25-89.75,38q-89.31,39-177.84,79.79-88.59,40.62-176.78,82.13t-176.22,83.34q-176,83.76-351.36,168.92Q2555.48,587,2380.43,672.74t-349.9,171.94q-174.83,86.22-349.4,172.94l-174.54,86.81-87.14,43.6-43.44,22c-14.49,7.32-28.91,14.78-43.35,22.22q-86.58,44.63-172.23,91-42.81,23.2-85.25,47-21.24,11.91-42.33,24c-14,8.07-28.1,16.26-41.94,24.53l-.24.15-.23.11q-129.44,64.5-253,139.89l-30.82,18.89c-10.2,6.41-20.34,12.93-30.51,19.38L660.82,1567c-5.07,3.25-10.07,6.62-15.1,9.92l-30.16,19.92c-39.94,27-79.34,54.74-117.86,83.64-9.68,7.16-19.15,14.58-28.71,21.89s-18.92,14.86-28.22,22.45c-2.35,1.88-4.62,3.81-6.94,5.71s-4.48,3.71-6.74,5.78l-13.36,12-13.21,12.24-13,12.44c-17.21,16.72-33.88,34-49.7,51.93a637.13,637.13,0,0,0-44.32,56.23c-6.72,9.82-13.12,19.84-19.07,30.1a335.73,335.73,0,0,0-16,31.63c-9.41,21.56-16.06,44.34-17.49,67.4-.09,2.88-.3,5.76-.23,8.63,0,1.44,0,2.88.05,4.31l.23,4.29a122.53,122.53,0,0,0,2.27,17,121,121,0,0,0,4.63,16.43,118.56,118.56,0,0,0,7,15.54,120.63,120.63,0,0,0,20.43,27.32,125.91,125.91,0,0,0,12.87,11.34c2.27,1.73,4.59,3.39,7,5,1.19.78,2.38,1.54,3.58,2.25.6.36,1.2.7,1.8,1l.88.48.77.41-.47-.21a182.9,182.9,0,0,0,36.5,10.32,173.5,173.5,0,0,0,37.82,2.09,184,184,0,0,0,18.88-2.05,181.21,181.21,0,0,0,18.56-4.09,176,176,0,0,0,18-6c2.93-1.17,5.83-2.43,8.67-3.75,1.41-.67,2.82-1.36,4.19-2.07.69-.35,1.37-.71,2-1.08s1.37-.76,1.85-1l.31-.19.28-.14,14.83-7.42,7.41-3.72,7.34-3.85c4.88-2.58,9.8-5.1,14.65-7.73l14.5-8c19.22-10.84,38.08-22.27,56.35-34.55s35.94-25.42,53.1-39.29,33.9-28.38,50.75-42.89l6.31-5.41c2.1-1.81,4.23-3.59,6.26-5.47l12.33-11.13L705,1935.52l6.17-5.57,6.09-5.65,24.39-22.63,24.07-23q47.88-46.15,93.38-94.67c30.31-32.36,59.67-65.59,88.47-99.36s57.1-68,86-101.94,57.19-68,85.51-102.2,56.49-68.61,84.62-103q84.35-103.26,167.92-207.15l20.83-26,10.56-13,10.69-12.86q21.52-25.59,43.51-50.69c29.28-33.53,59-66.63,88.79-99.64l44.8-49.41,22.36-24.68c.93-1,1.83-2.06,2.8-3.09l3-3.08c2-2,3.94-4.14,5.92-6.14L1636.78,870q24-23.25,48.36-46t48.72-45.57q97.67-90.87,196.1-180.86l6.13,8.35c-16.68,9.57-33.7,18.22-50.79,26.72s-34.31,16.64-51.6,24.66-34.62,15.9-52,23.65-34.82,15.4-52.35,22.91l.41-.2c-.91.49-1.68.88-2.51,1.29l-2.44,1.2-4.87,2.33c-3.25,1.51-6.5,3-9.76,4.47-6.52,2.93-13.07,5.76-19.62,8.57-13.11,5.59-26.29,11-39.49,16.3s-26.44,10.52-39.71,15.65l-19.91,7.67c-6.64,2.53-13.24,5.1-20.06,7.5a308.21,308.21,0,0,1-41.61,11.7l-2.65.56-2.67.47-5.35.92c-1.77.33-3.58.5-5.37.76s-3.59.5-5.39.7l-5.41.5-2.71.25-2.72.14-5.44.29-5.45.07a157.61,157.61,0,0,1-43.33-5.55,118.8,118.8,0,0,1-20.62-7.83,91.8,91.8,0,0,1-9.69-5.48c-1.58-1-3.11-2.08-4.63-3.22-.75-.57-1.5-1.15-2.24-1.77-.37-.31-.74-.62-1.11-1s-.71-.63-1.18-1.1l.6.51a73.26,73.26,0,0,1-8.09-6.57,60.63,60.63,0,0,1-6.9-7.93,55.48,55.48,0,0,1-8.75-19.07,70.79,70.79,0,0,1-1.71-20.61,103.26,103.26,0,0,1,3.28-20,175.31,175.31,0,0,1,14.85-37q4.65-8.79,10-17.16c3.56-5.6,7.22-11,11.35-16.38l-.27.4c8.78-14.35,18.85-27.65,29.31-40.56s21.45-25.35,32.69-37.53c22.46-24.36,45.86-47.78,69.73-70.68s48.22-45.29,72.87-67.32q18.51-16.51,37.26-32.74l9.41-8.08,4.73-4,1.23-1,1.23-.95,2.47-1.89,19.75-15.1c26.45-19.88,53.53-38.95,81.33-56.92a974.75,974.75,0,0,1,86-49.69c14.81-7.41,29.83-14.44,45.13-20.81s30.93-12,46.82-16.8a354.5,354.5,0,0,1,48.53-11.1q12.33-1.84,24.8-2.59c4.15-.25,8.3-.38,12.45-.46s8.3-.05,12.27-.31h.19c9.86.48,19.74,1,29.49,2.82l3.67.6c1.22.2,2.42.52,3.63.78,2.41.57,4.84,1,7.24,1.69l7.13,2.12c2.36.77,4.66,1.72,7,2.58A89.28,89.28,0,0,1,2140,202.45a69.91,69.91,0,0,1,17.69,24,81.21,81.21,0,0,1,4.61,14.23,91.2,91.2,0,0,1,1.87,14.79,96,96,0,0,1-.53,14.88c-.3,2.46-.64,4.92-1.13,7.36-.22,1.22-.49,2.43-.79,3.65-.15.62-.28,1.19-.5,1.85l-.66,1.74c-6.83,18.63-17,35.63-27.94,51.94a568.2,568.2,0,0,1-35.89,46.7c-12.68,15-26,29.44-39.57,43.59s-27.6,27.91-41.84,41.4S1986.57,495.2,1971.67,508Z" transform="translate(-39.12 -16.22)"/><path class="cls-1" d="M963.55,1496c8.87-15.26,18.46-30.09,27.85-45s17.66-30.52,26.16-46c4.26-7.73,8.55-15.46,13.21-23,2.34-3.76,4.76-7.48,7.4-11.07a78.66,78.66,0,0,1,8.71-10.2,31.68,31.68,0,0,1,11.44-7.45,19.12,19.12,0,0,1,7-1,18.84,18.84,0,0,1,6.91,1.54,16,16,0,0,1,5.64,4.42c1.5,1.8,2.67,3.72,3.91,5.48a24.2,24.2,0,0,0,4.09,4.7,17.16,17.16,0,0,0,5.25,3l.07,0,.08,0a20.49,20.49,0,0,0,8.39,2.08,28.16,28.16,0,0,0,8.75-1.18,59.68,59.68,0,0,0,16.24-8.07,136.75,136.75,0,0,0,14.48-11.47c4.6-4.13,9-8.49,13.31-13,8.57-9,16.67-18.42,24.53-28.07s15.47-19.52,23-29.48c15-19.92,29.51-40.21,44.12-60.47s29.27-40.51,44.91-60.12a372.12,372.12,0,0,1,24.81-28.46,135.33,135.33,0,0,1,14.28-12.78,61.92,61.92,0,0,1,8.28-5.38,29.88,29.88,0,0,1,9.91-3.39,17.52,17.52,0,0,1,5.72.17,15.17,15.17,0,0,1,5.48,2.28,16.91,16.91,0,0,1,4.15,4,25,25,0,0,1,2.69,4.7,43.79,43.79,0,0,1,2.82,9.73,86.94,86.94,0,0,1,1.15,9.67,184.15,184.15,0,0,1,.12,19.08c-.25,6.31-.7,12.59-1.24,18.84-2.16,25-5.63,49.75-7.39,74.48-.84,12.34-1.36,24.74-.29,36.79a65.23,65.23,0,0,0,3.6,17.22,23.18,23.18,0,0,0,4,6.92,13,13,0,0,0,5.9,4l.34.11.31.17c3.81,2.07,8.46,2.32,13.18,1.31a51.44,51.44,0,0,0,14-5.55c9.07-5.05,17.47-11.71,25.5-18.75s15.66-14.67,23.08-22.48,14.62-15.87,21.68-24.06c14.1-16.4,27.64-33.32,40.94-50.44s26.26-34.5,39.21-52c6.48-8.72,13-17.46,19.59-26.13s13.38-17.27,20.72-25.57a134.07,134.07,0,0,1,11.84-12c1.1-.94,2.21-1.88,3.42-2.77.32-.24.55-.43.94-.7a13.33,13.33,0,0,1,1.3-.8,13.58,13.58,0,0,1,2.87-1.16,13.28,13.28,0,0,1,6.17-.17,13.77,13.77,0,0,1,5.51,2.54,14.05,14.05,0,0,1,5.43,10.39,70.05,70.05,0,0,1-.16,8.73c-.42,5.66-1.24,11.16-2.19,16.61-1.94,10.88-4.43,21.54-7.08,32.15s-5.52,21.12-8.46,31.61c-5.88,21-12.07,41.82-18.21,62.66s-12.26,41.66-18,62.56c-2.84,10.45-5.57,20.92-8.06,31.42s-4.75,21-6.38,31.56a141.3,141.3,0,0,0-1.64,15.66,54.44,54.44,0,0,0,.17,7.49,25.7,25.7,0,0,0,.54,3.38c.07.23.14.57.19.71a2,2,0,0,0,.13.34,2.24,2.24,0,0,0,.38.58,2.41,2.41,0,0,0,1.15.74,2,2,0,0,0,.64.09,1.71,1.71,0,0,0,.31,0s.1,0,.16,0a1.62,1.62,0,0,0,.29-.08,50.91,50.91,0,0,0,7-2.61,87.13,87.13,0,0,0,13.34-7.74,193.21,193.21,0,0,0,24.23-20.55c7.63-7.49,14.92-15.41,22-23.53,14.14-16.26,27.46-33.34,40.46-50.66s25.61-35,38.11-52.72,24.86-35.61,37.24-53.46l37.3-53.49q18.73-26.7,37.77-53.21c12.74-17.64,25.64-35.18,38.95-52.44,6.66-8.63,13.42-17.19,20.37-25.62S1893.57,985,1901.11,977c3.78-4,7.66-7.93,11.75-11.7a106.42,106.42,0,0,1,13.21-10.6,41.15,41.15,0,0,1,8-4.19,21.66,21.66,0,0,1,4.85-1.24,12.61,12.61,0,0,1,3,0,9.18,9.18,0,0,1,3.36,1.15,10,10,0,0,1,2.59,2.2,9.75,9.75,0,0,1,.95,1.36,7.33,7.33,0,0,1,.39.73c.13.25.18.4.27.6a26.21,26.21,0,0,1,1.47,4.53,49.32,49.32,0,0,1,1.15,8.77,118.83,118.83,0,0,1-.54,16.83c-.53,5.52-1.27,11-2.15,16.41-1.75,10.85-4,21.55-6.39,32.2-4.87,21.29-10.53,42.32-16.43,63.27-3,10.5-6,20.87-9.09,31.4-.36,1.33-.88,2.67-1.31,4l-1.33,3.85-2.61,7.7q-2.6,7.71-5.11,15.44c-6.67,20.62-12.94,41.37-18.18,62.36-2.61,10.49-5,21-6.9,31.65a279.56,279.56,0,0,0-4.11,32,155.4,155.4,0,0,0-.2,16,85.51,85.51,0,0,0,2,15.64,41.21,41.21,0,0,0,5.89,14.07,23.9,23.9,0,0,0,11.43,9c1.11.43,2.45.77,3.72,1.21s2.5.72,3.77,1a49.56,49.56,0,0,0,7.67,1.1,57.52,57.52,0,0,0,15.56-1.25c10.29-2.21,20.1-6.73,29.29-12.18a206,206,0,0,0,26.17-18.83c8.3-6.9,16.23-14.27,23.94-21.87,15.46-15.17,29.79-31.52,44.85-47.23,7.51-7.87,15.15-15.64,23.14-23.06s16.37-14.51,25.72-20.28a75.77,75.77,0,0,1,7.26-3.93c1.25-.59,2.53-1.11,3.81-1.62a19.75,19.75,0,0,1,12.55-.45,20.34,20.34,0,0,1,3.91,1.64,32.51,32.51,0,0,1,3.49,2.32,48.4,48.4,0,0,1,11,12.26,86.14,86.14,0,0,1,7.35,14.65,204.31,204.31,0,0,1,8.95,31.37c2.27,10.64,4.13,21.34,6.06,32-2.1-10.67-4.12-21.34-6.56-31.92a202.86,202.86,0,0,0-9.41-31.11,83.59,83.59,0,0,0-7.47-14.32,46.84,46.84,0,0,0-10.83-11.75,29.66,29.66,0,0,0-3.31-2.15,18.88,18.88,0,0,0-3.62-1.45,17.75,17.75,0,0,0-7.7-.46,18,18,0,0,0-3.74,1c-1.24.51-2.47,1-3.67,1.62a68.82,68.82,0,0,0-7,3.92c-9.09,5.76-17.26,12.93-25.12,20.35s-15.34,15.31-22.73,23.25-14.66,16-22,24-14.74,16-22.41,23.77-15.61,15.26-23.94,22.35a212,212,0,0,1-26.49,19.49c-9.4,5.71-19.54,10.55-30.51,13a61.91,61.91,0,0,1-16.82,1.51,53.5,53.5,0,0,1-8.44-1.14c-1.39-.3-2.79-.67-4.12-1.07s-2.6-.74-4-1.27a28.6,28.6,0,0,1-7.78-4.29,30.67,30.67,0,0,1-6.09-6.43,46.36,46.36,0,0,1-6.8-15.75,89.86,89.86,0,0,1-2.31-16.61,155.37,155.37,0,0,1,.06-16.58,282.78,282.78,0,0,1,3.91-32.67c1.86-10.79,4.16-21.48,6.71-32.09,5.12-21.22,11.21-42.17,17.79-62.93q2.47-7.78,5-15.54l2.57-7.75,1.31-3.87c.42-1.28.88-2.48,1.22-3.78,3-10.32,6-20.84,8.85-31.27,5.76-20.92,11.26-41.9,15.95-63,2.33-10.56,4.46-21.15,6.11-31.77.82-5.31,1.51-10.62,2-15.92a112.23,112.23,0,0,0,.43-15.72,43.08,43.08,0,0,0-1-7.37,18.76,18.76,0,0,0-1-3.2c0-.1-.12-.28-.15-.33a1.4,1.4,0,0,0-.09-.17,1.66,1.66,0,0,0-.22-.3,2,2,0,0,0-.5-.43c-.42-.17-.32-.21-1.49-.1a13.49,13.49,0,0,0-3,.81,33.26,33.26,0,0,0-6.39,3.44,100.18,100.18,0,0,0-12.13,9.85c-3.88,3.61-7.64,7.42-11.3,11.34-7.33,7.84-14.34,16-21.18,24.41s-13.53,16.88-20.11,25.47c-13.17,17.21-26,34.73-38.59,52.38s-25.1,35.42-37.51,53.25c-24.82,35.64-49.28,71.55-74.28,107.17-12.51,17.8-25.16,35.52-38.21,53s-26.47,34.69-40.83,51.24c-7.18,8.27-14.61,16.36-22.48,24.1a202.5,202.5,0,0,1-25.41,21.59,95.78,95.78,0,0,1-14.82,8.59,59.64,59.64,0,0,1-8.27,3.1,5,5,0,0,1-.69.18,7.83,7.83,0,0,1-.84.18,12,12,0,0,1-5.09-.31,11.72,11.72,0,0,1-5.63-3.58,12.09,12.09,0,0,1-2.45-4.38c-.15-.5-.22-.83-.34-1.25a34.85,34.85,0,0,1-.76-4.65,63.7,63.7,0,0,1-.22-8.8,150.11,150.11,0,0,1,1.72-16.74c1.67-11,4-21.67,6.54-32.32s5.31-21.2,8.18-31.71c5.76-21,11.92-41.89,18.09-62.73s12.38-41.65,18.26-62.52c2.93-10.43,5.78-20.88,8.42-31.35s5.1-21,7-31.5c.93-5.25,1.71-10.51,2.11-15.68a64.26,64.26,0,0,0,.15-7.56,4.85,4.85,0,0,0-1.85-3.63,4.34,4.34,0,0,0-3.72-.81,4.89,4.89,0,0,0-.9.37l-.44.27c-.17.11-.46.35-.69.52-1,.71-1.94,1.53-2.9,2.35a126.7,126.7,0,0,0-11,11.18c-7.07,8-13.75,16.48-20.36,25s-13.11,17.25-19.61,26c-13,17.4-26.08,34.84-39.51,52s-27.11,34.12-41.41,50.62c-7.16,8.25-14.47,16.38-22,24.29s-15.4,15.62-23.69,22.9-17.06,14.15-27,19.67a59.56,59.56,0,0,1-16.25,6.33,32,32,0,0,1-9.27.58,24.26,24.26,0,0,1-9.28-2.78l.66.28a21.14,21.14,0,0,1-9.41-6.39,31.3,31.3,0,0,1-5.3-9.23,72.56,72.56,0,0,1-4-19.35,175,175,0,0,1-.49-19.12c.14-6.34.51-12.63,1-18.91,2-25.07,5.57-49.81,7.86-74.55.57-6.18,1-12.35,1.33-18.51a178.47,178.47,0,0,0,0-18.36,79,79,0,0,0-1-8.92,37.43,37.43,0,0,0-2.31-8.24,13.41,13.41,0,0,0-4.43-5.92,9.55,9.55,0,0,0-6.7-1.42,23.25,23.25,0,0,0-7.71,2.64,55.62,55.62,0,0,0-7.45,4.75,128.39,128.39,0,0,0-13.69,12.07,366.52,366.52,0,0,0-24.63,27.77c-15.67,19.31-30.45,39.42-45.24,59.52s-29.47,40.33-44.71,60.16c-7.63,9.91-15.38,19.73-23.39,29.36s-16.28,19.06-25,28c-4.4,4.49-8.92,8.86-13.66,13a138.54,138.54,0,0,1-15,11.6,62.56,62.56,0,0,1-17.27,8.33,31.22,31.22,0,0,1-9.75,1.2,23.52,23.52,0,0,1-9.61-2.51l.15.07a20.12,20.12,0,0,1-6.12-3.63,27.16,27.16,0,0,1-4.51-5.31c-1.27-1.86-2.39-3.73-3.7-5.33a13.24,13.24,0,0,0-4.63-3.75,16.35,16.35,0,0,0-5.91-1.39,16.67,16.67,0,0,0-6.06.82,29.35,29.35,0,0,0-10.63,6.78,76.43,76.43,0,0,0-8.58,9.78c-2.64,3.5-5.09,7.14-7.45,10.84-4.72,7.42-9.1,15.07-13.46,22.74-8.69,15.35-17.33,30.77-26.89,45.63S972.66,1480.89,963.55,1496Z" transform="translate(-39.12 -16.22)"/><path class="cls-1" d="M2116.56,1445.07c.94-5.77,2-11.51,3.14-17.26s2.39-11.45,3.68-17.16,2.66-11.39,4-17.08,2.83-11.36,4.35-17q4.55-17,9.62-33.78c1.72-5.6,3.4-11.21,5.23-16.77l5.49-16.7,5.76-16.6c.94-2.78,2-5.51,3-8.26l3.08-8.23L2167,1268l3.23-8.18,3.23-8.17c1.08-2.73,2.14-5.46,3.3-8.15q6.76-16.24,13.87-32.27l14.2-32.06q14.45-31.94,29.05-63.79l14.76-31.78,7.39-15.88,7.48-15.85c19.9-42.27,40-84.43,60.77-126.34-17.14,43.51-35.38,86.55-54,129.4l-7,16.07-7.07,16-14.15,32-28.58,64c-9.6,21.27-19.27,42.58-28.47,63.92s-17.75,43-26,64.82l-6,16.41c-1,2.74-1.94,5.49-2.9,8.25l-2.9,8.24c-3.85,11-7.51,22.07-11.06,33.17-1.83,5.54-3.51,11.12-5.28,16.68l-5,16.77-2.45,8.4-2.37,8.43C2119.53,1433.77,2118,1439.4,2116.56,1445.07Z" transform="translate(-39.12 -16.22)"/><path class="cls-1" d="M2243.47,1192.91c55.51-17.15,108.36-41.37,158.78-69.6A1060.57,1060.57,0,0,0,2545.48,1026l8.46-6.77,4.23-3.39c1.4-1.14,2.77-2.32,4.15-3.48l16.58-14c5.46-4.73,10.83-9.57,16.25-14.35,2.69-2.41,5.43-4.77,8.08-7.22l7.95-7.38,8-7.35c2.65-2.46,5.34-4.88,7.91-7.43l15.54-15.12,3.89-3.78c1.29-1.27,2.53-2.59,3.8-3.87l7.58-7.76,7.62-7.73,3.81-3.86c1.26-1.3,2.48-2.63,3.72-3.95a1726.71,1726.71,0,0,0,112.72-132.31,1205.8,1205.8,0,0,1-107.29,137.36c-19.6,21.51-39.89,42.43-61.12,62.38l-7.93,7.52c-2.66,2.48-5.41,4.87-8.11,7.32-5.44,4.84-10.82,9.75-16.3,14.55l-16.65,14.16c-1.39,1.18-2.76,2.37-4.17,3.53l-4.24,3.44-8.51,6.87c-22.82,18.12-46.28,35.46-70.54,51.62l-18.38,11.84c-6.18,3.87-12.42,7.63-18.63,11.44-3.1,1.93-6.29,3.69-9.43,5.54l-9.46,5.47c-6.35,3.57-12.79,7-19.17,10.49s-12.94,6.71-19.43,10l-9.82,4.79q-4.89,2.43-9.88,4.67l-9.93,4.54c-3.31,1.51-6.68,2.91-10,4.37-6.66,2.94-13.43,5.64-20.17,8.38-13.57,5.27-27.24,10.28-41.1,14.69-6.93,2.2-13.88,4.32-20.89,6.26S2250.52,1191.21,2243.47,1192.91Z" transform="translate(-39.12 -16.22)"/><path class="cls-1" d="M2310.31,1215.34a182.18,182.18,0,0,1,17.48,10.37q8.49,5.63,16.58,11.82a392.14,392.14,0,0,1,31,26.49,502.25,502.25,0,0,1,54.24,60.86c8.3,10.79,16.07,22,23.63,33.3,3.65,5.73,7.44,11.4,10.91,17.25l5.32,8.72,5.1,8.84c6.82,11.78,13.17,23.83,19.34,36,3,6.1,5.91,12.27,8.88,18.39l8.4,18.61,0,.1.06.18a605.86,605.86,0,0,1,20.91,73.58,763.16,763.16,0,0,1,12.23,75.45c2.93,25.3,4.63,50.69,5.84,76.06s1.88,50.76,2.13,76.13v.35c-2.13,30.49-4,61-6.23,91.55s-4.67,61-7.7,91.5-6.5,60.9-10.88,91.21-9.54,60.5-16,90.39c5.06-30.17,9-60.49,12.43-90.85s6.08-60.81,8.36-91.28,4.26-61,6-91.48l5.19-91.61v.35c-.55-25.29-1.19-50.57-2.49-75.8s-3.18-50.41-5.91-75.47a751.56,751.56,0,0,0-11.81-74.57l-2-9.23-2.22-9.16c-.75-3-1.4-6.13-2.25-9.16l-2.44-9.11-1.22-4.56-1.34-4.52-2.69-9-.67-2.26-.73-2.24-1.47-4.48-2.94-9,.11.28-8.12-18.51c-2.87-6.09-5.65-12.23-8.59-18.29-5.89-12.11-12-24.15-18.51-35.93a659.64,659.64,0,0,0-43.1-68.34c-7.91-10.91-16.14-21.6-24.84-31.91s-17.7-20.35-27.2-29.94-19.37-18.82-29.78-27.43c-5.21-4.3-10.53-8.47-16-12.46A178,178,0,0,0,2310.31,1215.34Z" transform="translate(-39.12 -16.22)"/></g></svg>